<?xml version="1.0" encoding="UTF-8"?>
<svg width="24px" height="24px" viewBox="0 0 24 24" version="1.1" xmlns="http://www.w3.org/2000/svg" xmlns:xlink="http://www.w3.org/1999/xlink">
    <!-- Generator: Sketch 41.1 (35376) - http://www.bohemiancoding.com/sketch -->
    <title>ic_facebook</title>
    <desc>Created with Sketch.</desc>
    <defs></defs>
    <g id="Page-1" stroke="none" stroke-width="1" fill="none" fill-rule="evenodd">
        <g id="Desktop" transform="translate(-1176.000000, -39.000000)" fill="#FFFFFF">
            <g id="Nav-Copy" transform="translate(0.000000, -52.000000)">
                <path d="M1198.67549,115 L1192.55961,115 L1192.55961,105.705818 L1195.67933,105.705818 L1196.14677,102.084114 L1192.55961,102.084114 L1192.55961,99.771192 C1192.55961,98.7225975 1192.85119,98.0080628 1194.35483,98.0080628 L1196.27294,98.007409 L1196.27294,94.7674875 C1195.94084,94.7236871 1194.80265,94.6249728 1193.47814,94.6249728 C1190.71276,94.6249728 1188.81948,96.3129222 1188.81948,99.412944 L1188.81948,102.084114 L1185.69192,102.084114 L1185.69192,105.705818 L1188.81948,105.705818 L1188.81948,115 L1177.32451,115 C1176.59296,115 1176,114.406407 1176,113.674875 L1176,92.3251253 C1176,91.5929396 1176.59296,91 1177.32451,91 L1198.67549,91 C1199.40704,91 1200,91.5929396 1200,92.3251253 L1200,113.674875 C1200,114.406407 1199.40704,115 1198.67549,115 Z" id="ic_facebook"></path>
            </g>
        </g>
    </g>
</svg>