<?xml version="1.0" encoding="UTF-8"?>
<svg width="22px" height="18px" viewBox="0 0 22 18" version="1.1" xmlns="http://www.w3.org/2000/svg" xmlns:xlink="http://www.w3.org/1999/xlink">
    <!-- Generator: Sketch 41.1 (35376) - http://www.bohemiancoding.com/sketch -->
    <title>ic_twitter</title>
    <desc>Created with Sketch.</desc>
    <defs></defs>
    <g id="Page-1" stroke="none" stroke-width="1" fill="none" fill-rule="evenodd">
        <g id="Desktop" transform="translate(-1125.000000, -42.000000)" fill="#FFFFFF">
            <g id="Nav-Copy" transform="translate(0.000000, -52.000000)">
                <path d="M1143.52492,95.4337253 C1142.70374,94.5513441 1141.5301,94 1140.23077,94 C1137.74018,94 1135.71893,96.0346673 1135.71893,98.5439749 C1135.71893,98.9003877 1135.7577,99.2458428 1135.83523,99.5786101 C1132.08408,99.3888693 1128.75879,97.5820063 1126.53136,94.829323 C1126.1425,95.5029317 1125.92046,96.2843869 1125.92046,97.1165935 C1125.92046,98.6921919 1126.71698,100.08324 1127.92879,100.898145 C1127.18984,100.87623 1126.49259,100.669764 1125.88287,100.331806 L1125.88287,100.387171 C1125.88287,102.589664 1127.4389,104.427093 1129.50538,104.842908 C1129.12709,104.949601 1128.72766,105.003236 1128.31589,105.003236 C1128.02512,105.003236 1127.74141,104.975553 1127.4665,104.922495 C1128.04098,106.727051 1129.70686,108.041396 1131.6823,108.076576 C1130.13801,109.295761 1128.19077,110.022428 1126.07671,110.022428 C1125.71252,110.022428 1125.35244,110.001666 1125,109.960142 C1126.99717,111.247381 1129.37086,112 1131.91902,112 C1140.22196,112 1144.76082,105.077056 1144.76082,99.0716734 C1144.76082,98.8738586 1144.7573,98.6766204 1144.74966,98.4828426 C1145.63135,97.8421069 1146.39732,97.0421967 1147,96.1309795 C1146.19173,96.492006 1145.3212,96.7365352 1144.40838,96.8461119 C1145.34059,96.2843869 1146.05604,95.3939316 1146.39321,94.3327673 C1145.52033,94.8529685 1144.55582,95.2312967 1143.52492,95.4337253 Z" id="ic_twitter"></path>
            </g>
        </g>
    </g>
</svg>