<?xml version="1.0" encoding="UTF-8"?>
<svg width="132px" height="19px" viewBox="0 0 132 19" version="1.1" xmlns="http://www.w3.org/2000/svg" xmlns:xlink="http://www.w3.org/1999/xlink">
    <!-- Generator: Sketch 41.1 (35376) - http://www.bohemiancoding.com/sketch -->
    <title>stars</title>
    <desc>Created with Sketch.</desc>
    <defs></defs>
    <g id="Page-1" stroke="none" stroke-width="1" fill="none" fill-rule="evenodd">
        <g id="Desktop" transform="translate(-486.000000, -1186.000000)" fill="#FFBF00">
            <g id="More-stories-Copy" transform="translate(0.000000, 719.000000)">
                <g id="Pictures-Copy-4" transform="translate(475.000000, 200.000000)">
                    <g id="stars" transform="translate(11.000000, 267.000000)">
                        <polygon id="Star" points="9.98609342 15.75 3.81434827 18.9946784 4.99304671 12.1223392 1.11022302e-16 7.25532156 6.90022085 6.25266078 9.98609342 0 13.071966 6.25266078 19.9721868 7.25532156 14.9791401 12.1223392 16.1578386 18.9946784"></polygon>
                        <polygon id="Star-Copy" points="37.9860934 15.75 31.8143483 18.9946784 32.9930467 12.1223392 28 7.25532156 34.9002208 6.25266078 37.9860934 0 41.071966 6.25266078 47.9721868 7.25532156 42.9791401 12.1223392 44.1578386 18.9946784"></polygon>
                        <polygon id="Star-Copy-2" points="65.9860934 15.75 59.8143483 18.9946784 60.9930467 12.1223392 56 7.25532156 62.9002208 6.25266078 65.9860934 0 69.071966 6.25266078 75.9721868 7.25532156 70.9791401 12.1223392 72.1578386 18.9946784"></polygon>
                        <polygon id="Star-Copy-3" points="93.9860934 15.75 87.8143483 18.9946784 88.9930467 12.1223392 84 7.25532156 90.9002208 6.25266078 93.9860934 0 97.071966 6.25266078 103.972187 7.25532156 98.9791401 12.1223392 100.157839 18.9946784"></polygon>
                        <polygon id="Star-Copy-4" points="121.986093 15.75 115.814348 18.9946784 116.993047 12.1223392 112 7.25532156 118.900221 6.25266078 121.986093 0 125.071966 6.25266078 131.972187 7.25532156 126.97914 12.1223392 128.157839 18.9946784"></polygon>
                    </g>
                </g>
            </g>
        </g>
    </g>
</svg>