<?xml version="1.0" encoding="UTF-8"?>
<svg width="121px" height="56px" viewBox="0 0 121 56" version="1.1" xmlns="http://www.w3.org/2000/svg" xmlns:xlink="http://www.w3.org/1999/xlink">
    <!-- Generator: Sketch 41.1 (35376) - http://www.bohemiancoding.com/sketch -->
    <title>logo</title>
    <desc>Created with Sketch.</desc>
    <defs></defs>
    <g id="Page-1" stroke="none" stroke-width="1" fill="none" fill-rule="evenodd">
        <g id="Desktop" transform="translate(-39.000000, -20.000000)" fill="#FFFFFF">
            <g id="logo" transform="translate(39.000000, 20.000000)">
                <path d="M4.08496094,43.8969727 L4.08496094,54 L0.330566406,54 L0.330566406,29.1210938 L4.58447266,29.1210938 C6.66846745,29.1210938 8.24218218,29.2661118 9.30566406,29.5561523 C10.3798882,29.8461929 11.3251912,30.3940389 12.1416016,31.199707 C13.5703196,32.5961984 14.284668,34.3578995 14.284668,36.4848633 C14.284668,38.7622184 13.5219803,40.5668879 11.996582,41.8989258 C10.4711838,43.2309637 8.41407544,43.8969727 5.82519531,43.8969727 L4.08496094,43.8969727 Z M4.08496094,40.4165039 L5.48681641,40.4165039 C8.93507583,40.4165039 10.6591797,39.089857 10.6591797,36.4365234 C10.6591797,33.8691278 8.88136543,32.5854492 5.32568359,32.5854492 L4.08496094,32.5854492 L4.08496094,40.4165039 Z M21.90625,29.1210938 L21.90625,54 L18.1518555,54 L18.1518555,29.1210938 L21.90625,29.1210938 Z M31.6386719,29.1210938 L31.6386719,50.4711914 L38.9541016,50.4711914 L38.9541016,54 L27.8842773,54 L27.8842773,29.1210938 L31.6386719,29.1210938 Z M46.2695312,29.1210938 L46.2695312,50.4711914 L53.5849609,50.4711914 L53.5849609,54 L42.5151367,54 L42.5151367,29.1210938 L46.2695312,29.1210938 Z M55.9052734,41.4477539 C55.9052734,37.9457833 57.188952,34.9380008 59.7563477,32.4243164 C62.3130011,29.910632 65.385236,28.6538086 68.9731445,28.6538086 C72.5180841,28.6538086 75.5580928,29.921374 78.0932617,32.456543 C80.6391729,34.9917119 81.9121094,38.0370916 81.9121094,41.5927734 C81.9121094,45.1699398 80.6338018,48.2045774 78.0771484,50.6967773 C75.5097528,53.1997195 72.4106627,54.4511719 68.7797852,54.4511719 C65.567855,54.4511719 62.6836065,53.3393666 60.1269531,51.1157227 C57.3124859,48.6557494 55.9052734,45.4331254 55.9052734,41.4477539 Z M59.6918945,41.4960938 C59.6918945,44.2461075 60.6157134,46.5073154 62.4633789,48.2797852 C64.3003022,50.052255 66.421863,50.9384766 68.828125,50.9384766 C71.4384896,50.9384766 73.640616,50.0361418 75.4345703,48.2314453 C77.2285246,46.4052643 78.1254883,44.1816537 78.1254883,41.5605469 C78.1254883,38.9072133 77.2392667,36.6836027 75.4667969,34.8896484 C73.7050693,33.0849519 71.5244271,32.1826172 68.9248047,32.1826172 C66.3359246,32.1826172 64.1499113,33.0849519 62.3666992,34.8896484 C60.5834872,36.6728605 59.6918945,38.8749869 59.6918945,41.4960938 Z M87.8579102,29.1210938 L94.3354492,45.75 L101.103027,27.9125977 L107.580566,45.75 L114.460938,29.1210938 L118.537598,29.1210938 L107.419434,55.5791016 L101.022461,37.9511719 L94.3515625,55.5952148 L83.78125,29.1210938 L87.8579102,29.1210938 Z" id="PILLOW"></path>
                <path d="M14.6419535,4.77585024 L5.8483539,4.77585024 L4.37130397,14.1877498 L12.9244536,14.1877498 L12.6840036,15.7334998 L4.13085398,15.7334998 L2.00115408,29.1299992 L0.352354149,29.1299992 L4.44000397,3.23010031 L14.8824035,3.23010031 L14.6419535,4.77585024 Z M21.5119532,0.79125042 L17.0121034,29.1299992 L15.4663535,29.1299992 L19.9662033,0.79125042 L21.5119532,0.79125042 Z M26.939253,13.2602999 L24.4317031,29.1299992 L22.8859531,29.1299992 L25.393503,13.2602999 L26.939253,13.2602999 Z M27.248403,6.56205016 C27.6377049,6.56205016 27.9468518,6.69944878 28.1758529,6.97425014 C28.404854,7.24905151 28.4964531,7.58109817 28.4506529,7.9704001 C28.3819526,8.35970203 28.1873045,8.69174869 27.8667029,8.96655006 C27.5461013,9.24135142 27.1911549,9.37875004 26.801853,9.37875004 C26.412551,9.37875004 26.1034041,9.24135142 25.874403,8.96655006 C25.6454019,8.69174869 25.5652527,8.35970203 25.633953,7.9704001 C25.6797533,7.58109817 25.8629514,7.24905151 26.183553,6.97425014 C26.5041546,6.69944878 26.859101,6.56205016 27.248403,6.56205016 Z M40.3701024,14.3594998 C38.4235927,14.3594998 36.7862592,15.0522179 35.4580526,16.4376747 C34.129846,17.8231316 33.3054543,19.5234395 32.9848527,21.5386495 C32.6871512,23.4164588 33.0249228,24.9679182 33.9981777,26.1930743 C34.9714325,27.4182304 36.3969432,28.0307992 38.2747525,28.0307992 C40.0838614,28.0307992 41.6696705,27.3781558 43.0322273,26.0728493 C44.394784,24.7675428 45.2249007,23.1989086 45.5226021,21.3668995 C45.8203036,19.4661901 45.5054318,17.8231316 44.5779772,16.4376747 C43.6505226,15.0522179 42.2479117,14.3594998 40.3701024,14.3594998 Z M34.3932026,13.2602999 L33.9466527,16.1113497 L34.0153527,16.1113497 C34.7481563,15.1266449 35.7213965,14.3480527 36.9351025,13.7755498 C38.1488085,13.203047 39.3624963,12.9167999 40.5762024,12.9167999 C42.9349141,12.9167999 44.6981963,13.7240168 45.8661021,15.3384748 C47.0340079,16.9529328 47.4347539,18.9509377 47.0683521,21.3325495 C46.7019503,23.6912612 45.6886354,25.6377416 44.0283772,27.1720492 C42.368119,28.7063569 40.3586642,29.4734991 37.9999525,29.4734991 C36.7633463,29.4734991 35.6412576,29.2044268 34.6336526,28.6662742 C33.6260476,28.1281215 32.8818051,27.3667042 32.4009027,26.3819993 L32.3322027,26.3819993 L30.4086028,38.4044987 L28.8628529,38.4044987 L32.8474527,13.2602999 L34.3932026,13.2602999 Z M66.4417512,6.52770016 L65.1364513,7.48950012 C64.1746465,5.45139002 62.5831125,4.43235026 60.3618015,4.43235026 C58.9877947,4.43235026 57.756932,4.91324543 56.6691766,5.87505019 C55.5814213,6.83685496 54.9230529,8.00474323 54.6940517,9.37875004 C54.6253514,9.88255253 54.6539761,10.3577228 54.7799267,10.804275 C54.9058774,11.2508272 55.0661757,11.6172235 55.2608267,11.9034749 C55.4554777,12.1897263 55.7646246,12.4874234 56.1882767,12.7965749 C56.6119288,13.1057264 56.9611503,13.3404491 57.2359516,13.5007499 C57.510753,13.6610506 57.9000491,13.8671486 58.4038516,14.1190498 L58.6099516,14.2220998 L63.1441514,16.7983497 C64.9074601,18.0349558 65.617353,19.7524386 65.2738513,21.9508495 C64.9532497,24.0576599 63.8597857,25.838117 61.9934264,27.2922742 C60.1270672,28.7464314 58.1176123,29.4734991 55.9650017,29.4734991 C54.2016929,29.4734991 52.7246578,28.9697042 51.5338519,27.9620992 C50.343046,26.9544942 49.5759037,25.6034078 49.232402,23.9087994 L50.7781519,23.2561494 C51.1216536,24.6988566 51.7513973,25.8381201 52.6674018,26.6739743 C53.5834064,27.5098284 54.7970942,27.9277492 56.3085017,27.9277492 C58.0260102,27.9277492 59.6118192,27.3323552 61.0659765,26.1415493 C62.5201337,24.9507434 63.3846,23.5080579 63.6594013,21.8134495 C63.7281017,21.2867469 63.693752,20.7944018 63.5563513,20.3363996 C63.4189507,19.8783973 63.2472024,19.4948261 63.0411014,19.1856746 C62.8350003,18.8765231 62.5029537,18.5502013 62.0449514,18.2066996 C61.5869491,17.8631979 61.2148279,17.6113005 60.9285765,17.4509997 C60.642325,17.2906989 60.2244042,17.0731511 59.6748015,16.7983497 C59.4916006,16.6838491 59.354202,16.6036999 59.2626015,16.5578997 L54.9688517,14.0846998 C53.3658438,12.9854944 52.7246502,11.4397599 53.0452518,9.44745004 C53.3429533,7.5238405 54.2074196,5.94948132 55.6386767,4.72432524 C57.0699338,3.49916917 58.7587918,2.88660033 60.7053015,2.88660033 C62.0106079,2.88660033 63.1842211,3.21292205 64.2261763,3.86557528 C65.2681315,4.51822852 66.0066491,5.4055946 66.4417512,6.52770016 Z M72.281251,14.7029998 L69.9798011,29.1299992 L68.4340511,29.1299992 L70.735501,14.7029998 L68.9836511,14.7029998 L69.1897511,13.2602999 L70.941601,13.2602999 L71.834701,7.59255012 L73.3804509,7.59255012 L72.4873509,13.2602999 L75.2697008,13.2602999 L75.0636008,14.7029998 L72.281251,14.7029998 Z M80.0787006,13.2602999 L77.5711507,29.1299992 L76.0254008,29.1299992 L78.5329507,13.2602999 L80.0787006,13.2602999 Z M80.3878506,6.56205016 C80.7771525,6.56205016 81.0862994,6.69944878 81.3153006,6.97425014 C81.5443017,7.24905151 81.6359008,7.58109817 81.5901005,7.9704001 C81.5214002,8.35970203 81.3267522,8.69174869 81.0061506,8.96655006 C80.685549,9.24135142 80.3306025,9.37875004 79.9413006,9.37875004 C79.5519987,9.37875004 79.2428518,9.24135142 79.0138507,8.96655006 C78.7848495,8.69174869 78.7047003,8.35970203 78.7734007,7.9704001 C78.8192009,7.58109817 79.0023991,7.24905151 79.3230006,6.97425014 C79.6436022,6.69944878 79.9985487,6.56205016 80.3878506,6.56205016 Z M87.4983003,14.7029998 L85.1968504,29.1299992 L83.6511004,29.1299992 L85.9525503,14.7029998 L84.2007004,14.7029998 L84.4068004,13.2602999 L86.1586503,13.2602999 L87.0517503,7.59255012 L88.5975002,7.59255012 L87.7044003,13.2602999 L90.4867501,13.2602999 L90.2806502,14.7029998 L87.4983003,14.7029998 Z M105.085499,14.8747498 L104.742,16.9357497 C103.436693,15.2182412 101.70776,14.3594998 99.5551497,14.3594998 C97.7231407,14.3594998 96.0629073,15.035043 94.5744,16.3861497 C93.0858926,17.7372564 92.2042514,19.3287904 91.9294501,21.1607995 C91.6317486,22.9928086 92.0038699,24.5957925 93.045825,25.9697993 C94.0877802,27.3438061 95.5247408,28.0307992 97.3567498,28.0307992 C98.4788554,28.0307992 99.5894942,27.7789017 100.6887,27.2750992 C101.787905,26.7712967 102.772595,26.0728538 103.6428,25.1797493 L103.33365,27.2750992 C101.41004,28.7407065 99.3605106,29.4734991 97.1849998,29.4734991 C94.8491883,29.4734991 93.0401064,28.6720072 91.7577001,27.0689993 C90.4752937,25.4659913 90.0172983,23.4966111 90.3837001,21.1607995 C90.750102,18.8478881 91.837841,16.8956827 93.64695,15.3041248 C95.456059,13.7125669 97.5284882,12.9167999 99.8642997,12.9167999 C102.01691,12.9167999 103.757293,13.5694433 105.085499,14.8747498 Z M111.543299,0.79125042 L113.089049,0.79125042 L110.718899,15.7334998 L110.787599,15.7334998 C111.383002,14.8403953 112.13297,14.1476773 113.037524,13.6553248 C113.942079,13.1629724 114.909594,12.9167999 115.940099,12.9167999 C117.863709,12.9167999 119.123196,13.4721193 119.718599,14.5827748 C120.314002,15.6934303 120.439951,17.3479387 120.096449,19.5463496 L118.585049,29.1299992 L117.039299,29.1299992 L118.550699,19.5463496 C118.665199,18.9051464 118.733899,18.3555519 118.756799,17.8975497 C118.779699,17.4395474 118.756799,16.9701021 118.688099,16.4891997 C118.619399,16.0082973 118.476275,15.6247262 118.258724,15.3384748 C118.041173,15.0522234 117.709126,14.8175007 117.262574,14.6342998 C116.816022,14.4510989 116.249252,14.3594998 115.562249,14.3594998 C114.806545,14.3594998 114.119552,14.5026234 113.501249,14.7888748 C112.882946,15.0751262 112.373426,15.4357976 111.972674,15.8708997 C111.571922,16.3060019 111.222701,16.8441465 110.924999,17.4853497 C110.627298,18.1265529 110.3983,18.7448466 110.237999,19.3402496 C110.077698,19.9356525 109.9403,20.588296 109.825799,21.2981995 L108.589199,29.1299992 L107.043449,29.1299992 L111.543299,0.79125042 Z" id="FlipStitch"></path>
            </g>
        </g>
    </g>
</svg>