<?xml version="1.0" encoding="UTF-8"?>
<svg width="145px" height="66px" viewBox="0 0 145 66" version="1.1" xmlns="http://www.w3.org/2000/svg" xmlns:xlink="http://www.w3.org/1999/xlink">
    <!-- Generator: Sketch 41.1 (35376) - http://www.bohemiancoding.com/sketch -->
    <title>logo</title>
    <desc>Created with Sketch.</desc>
    <defs></defs>
    <g id="Page-1" stroke="none" stroke-width="1" fill="none" fill-rule="evenodd">
        <g id="Desktop" transform="translate(-570.000000, -1463.000000)" fill="#00B2A0">
            <g id="Footer" transform="translate(0.000000, 1349.000000)">
                <g id="logo" transform="translate(570.000000, 114.000000)">
                    <path d="M4.60342371,51.5330836 L4.60342371,63.6567164 L0.0981502757,63.6567164 L0.0981502757,33.8020289 L5.20283778,33.8020289 C7.70363153,33.8020289 9.59208921,33.9760506 10.8682675,34.3240992 C12.1573364,34.6721478 13.2917001,35.3295631 14.2713925,36.2963649 C15.9858542,37.9721545 16.8430722,40.0861958 16.8430722,42.6385524 C16.8430722,45.3713785 15.9278469,47.5369819 14.097369,49.1354274 C12.2668911,50.7338728 9.79836112,51.5330836 6.69170496,51.5330836 L4.60342371,51.5330836 Z M4.60342371,47.3565211 L6.28565028,47.3565211 C10.4235616,47.3565211 12.4924862,45.7645448 12.4924862,42.5805445 C12.4924862,39.4996698 10.3591091,37.9592555 6.0922909,37.9592555 L4.60342371,37.9592555 L4.60342371,47.3565211 Z M25.9889706,33.8020289 L25.9889706,63.6567164 L21.4836972,63.6567164 L21.4836972,33.8020289 L25.9889706,33.8020289 Z M37.6678768,33.8020289 L37.6678768,59.4221461 L46.4463925,59.4221461 L46.4463925,63.6567164 L33.1626034,63.6567164 L33.1626034,33.8020289 L37.6678768,33.8020289 Z M55.2249081,33.8020289 L55.2249081,59.4221461 L64.0034237,59.4221461 L64.0034237,63.6567164 L50.7196347,63.6567164 L50.7196347,33.8020289 L55.2249081,33.8020289 Z M66.7877987,48.5940211 C66.7877987,44.3916563 68.328213,40.7823174 71.4090878,37.7658961 C74.4770719,34.7494748 78.1637537,33.2412867 82.469244,33.2412867 C86.7231715,33.2412867 90.3711819,34.7623653 93.4133847,37.804568 C96.4684781,40.8467707 97.9960018,44.5012263 97.9960018,48.7680445 C97.9960018,53.0606441 96.4620328,56.7022093 93.3940487,59.6928492 C90.3131739,62.6963799 86.5942658,64.1981227 82.2372128,64.1981227 C78.3828966,64.1981227 74.9217984,62.8639563 71.8538143,60.1955836 C68.4764537,57.2436157 66.7877987,53.3764669 66.7877987,48.5940211 Z M71.331744,48.6520289 C71.331744,51.9520454 72.4403267,54.6654948 74.6575253,56.7924586 C76.8618332,58.9194224 79.4077062,59.9828883 82.2952206,59.9828883 C85.4276581,59.9828883 88.0702098,58.9000866 90.222955,56.7344508 C92.3757001,54.5430336 93.4520565,51.8747009 93.4520565,48.7293727 C93.4520565,45.5453724 92.3885906,42.8770397 90.2616268,40.7242945 C88.1475538,38.5586587 85.5307831,37.475857 82.4112362,37.475857 C79.3045801,37.475857 76.6813641,38.5586587 74.5415097,40.7242945 C72.4016552,42.864149 71.331744,45.5067007 71.331744,48.6520289 Z M105.130963,33.8020289 L112.90401,53.7567164 L121.025103,32.3518336 L128.79815,53.7567164 L137.054596,33.8020289 L141.946588,33.8020289 L128.604791,65.5516383 L120.928424,44.3981227 L112.923346,65.5709742 L100.238971,33.8020289 L105.130963,33.8020289 Z" id="PILLOW"></path>
                    <path d="M17.269756,4.93024418 L6.71743645,4.93024418 L4.94497653,16.2245237 L15.2087561,16.2245237 L14.9202161,18.0794236 L4.65643654,18.0794236 L2.10079665,34.1552229 L0.122236741,34.1552229 L5.02741652,3.07534426 L17.558296,3.07534426 L17.269756,4.93024418 Z M25.5137556,0.148724389 L20.1139359,34.1552229 L18.2590359,34.1552229 L23.6588557,0.148724389 L25.5137556,0.148724389 Z M32.0265153,15.1115837 L29.0174555,34.1552229 L27.1625555,34.1552229 L30.1716154,15.1115837 L32.0265153,15.1115837 Z M32.3974953,7.07368408 C32.8646576,7.07368408 33.2356339,7.23856243 33.5104353,7.56832406 C33.7852366,7.89808569 33.8951555,8.29654169 33.8401952,8.76370401 C33.7577548,9.23086632 33.5241772,9.62932232 33.1394553,9.95908395 C32.7547334,10.2888456 32.3287976,10.4537239 31.8616353,10.4537239 C31.394473,10.4537239 31.0234967,10.2888456 30.7486954,9.95908395 C30.473894,9.62932232 30.377715,9.23086632 30.4601554,8.76370401 C30.5151157,8.29654169 30.7349535,7.89808569 31.1196754,7.56832406 C31.5043973,7.23856243 31.930333,7.07368408 32.3974953,7.07368408 Z M48.1435346,16.4306237 C45.807723,16.4306237 43.8429228,17.2618853 42.2490749,18.9244336 C40.655227,20.5869818 39.6659569,22.6273513 39.281235,25.0456033 C38.9239932,27.2989744 39.3293192,29.1607257 40.4972249,30.630913 C41.6651307,32.1011003 43.3757436,32.8361829 45.6291147,32.8361829 C47.8000455,32.8361829 49.7030164,32.0530108 51.3380845,30.486643 C52.9731526,28.9202753 53.9692926,27.0379142 54.3265343,24.8395033 C54.6837761,22.558652 54.3059299,20.5869818 53.1929844,18.9244336 C52.0800389,17.2618853 50.3969058,16.4306237 48.1435346,16.4306237 Z M40.9712549,15.1115837 L40.435395,18.5328436 L40.5178349,18.5328436 C41.3971993,17.3511977 42.5650876,16.4168871 44.0215348,15.7298837 C45.477982,15.0428803 46.9344074,14.6993837 48.3908546,14.6993837 C51.2213086,14.6993837 53.3372474,15.668044 54.7387343,17.6053936 C56.1402213,19.5427432 56.6211164,21.9403491 56.1814343,24.7982833 C55.7417521,27.6287373 54.5257743,29.9645139 52.5334644,31.805683 C50.5411545,33.6468521 48.1298088,34.5674229 45.2993547,34.5674229 C43.8154274,34.5674229 42.4689209,34.2445361 41.2597949,33.5987529 C40.0506689,32.9529697 39.1575779,32.0392689 38.580495,30.857623 L38.498055,30.857623 L36.1897351,45.2846224 L34.3348352,45.2846224 L39.116355,15.1115837 L40.9712549,15.1115837 Z M79.4295132,7.03246408 L77.8631533,8.18662403 C76.7089876,5.74089191 74.7991468,4.5180442 72.1335735,4.5180442 C70.4847654,4.5180442 69.0077302,5.0951184 67.7024237,6.24928412 C66.3971173,7.40344984 65.6070752,8.80491576 65.3322738,10.4537239 C65.2498334,11.0582869 65.2841831,11.6284912 65.4353238,12.1643539 C65.5864646,12.7002165 65.7788227,13.1398921 66.0124038,13.4833938 C66.245985,13.8268955 66.6169612,14.1841319 67.1253438,14.5551137 C67.6337263,14.9260956 68.0527921,15.2077628 68.3825537,15.4001237 C68.7123153,15.5924847 69.1794707,15.8398022 69.7840336,16.1420837 L70.0313536,16.2657437 L75.4723934,19.3572435 C77.5883639,20.8411709 78.4402353,22.9021502 78.0280333,25.5402433 C77.6433114,28.0684158 76.3311546,30.2049643 74.0915235,31.949953 C71.8518924,33.6949416 69.4405466,34.5674229 66.8574138,34.5674229 C64.7414433,34.5674229 62.9690011,33.9628689 61.540034,32.7537429 C60.1110669,31.5446169 59.1904962,29.9233132 58.7782941,27.8897832 L60.6331941,27.1066032 C61.0453961,28.8378518 61.8010885,30.204968 62.900294,31.207993 C63.9994994,32.211018 65.4559248,32.7125229 67.2696138,32.7125229 C69.330624,32.7125229 71.2335949,31.9980501 72.9785835,30.569083 C74.7235722,29.140116 75.7609317,27.4088933 76.0906934,25.3753633 C76.1731338,24.7433201 76.1319142,24.1525061 75.9670334,23.6029033 C75.8021526,23.0533006 75.5960546,22.5930152 75.3487334,22.2220334 C75.1014122,21.8510516 74.7029562,21.4594655 74.1533535,21.0472635 C73.6037507,20.6350614 73.1572052,20.3327845 72.8137035,20.1404235 C72.4702018,19.9480625 71.9686968,19.6870052 71.3091736,19.3572435 C71.0893325,19.2198429 70.9244541,19.1236638 70.8145336,19.0687035 L65.6620338,16.1008637 C63.7384243,14.7818171 62.968992,12.9269358 63.3537139,10.5361639 C63.7109557,8.22783249 64.7483153,6.33860147 66.4658238,4.86841418 C68.1833323,3.39822689 70.2099619,2.66314428 72.5457735,2.66314428 C74.1121413,2.66314428 75.5204771,3.05473034 76.7708233,3.83791423 C78.0211695,4.62109811 78.9073906,5.68593741 79.4295132,7.03246408 Z M86.4369129,16.8428236 L83.675173,34.1552229 L81.8202731,34.1552229 L84.582013,16.8428236 L82.4797931,16.8428236 L82.7271131,15.1115837 L84.829333,15.1115837 L85.9010529,8.31028403 L87.7559528,8.31028403 L86.6842329,15.1115837 L90.0230527,15.1115837 L89.7757328,16.8428236 L86.4369129,16.8428236 Z M95.7938525,15.1115837 L92.7847926,34.1552229 L90.9298927,34.1552229 L93.9389526,15.1115837 L95.7938525,15.1115837 Z M96.1648325,7.07368408 C96.6319948,7.07368408 97.0029711,7.23856243 97.2777724,7.56832406 C97.5525738,7.89808569 97.6624927,8.29654169 97.6075324,8.76370401 C97.525092,9.23086632 97.2915143,9.62932232 96.9067924,9.95908395 C96.5220705,10.2888456 96.0961348,10.4537239 95.6289725,10.4537239 C95.1618102,10.4537239 94.7908339,10.2888456 94.5160325,9.95908395 C94.2412312,9.62932232 94.1450522,9.23086632 94.2274926,8.76370401 C94.2824528,8.29654169 94.5022906,7.89808569 94.8870125,7.56832406 C95.2717344,7.23856243 95.6976702,7.07368408 96.1648325,7.07368408 Z M104.697372,16.8428236 L101.935632,34.1552229 L100.080732,34.1552229 L102.842472,16.8428236 L100.740252,16.8428236 L100.987572,15.1115837 L103.089792,15.1115837 L104.161512,8.31028403 L106.016412,8.31028403 L104.944692,15.1115837 L108.283512,15.1115837 L108.036192,16.8428236 L104.697372,16.8428236 Z M125.802011,17.0489236 L125.389811,19.5221235 C123.823443,17.4611133 121.748724,16.4306237 119.165591,16.4306237 C116.967181,16.4306237 114.974901,17.2412755 113.188692,18.8626036 C111.402483,20.4839316 110.344513,22.3937724 110.014752,24.5921833 C109.65751,26.7905942 110.104056,28.7141749 111.354402,30.362983 C112.604748,32.0117912 114.329101,32.8361829 116.527512,32.8361829 C117.874038,32.8361829 119.206805,32.533906 120.525851,31.929343 C121.844898,31.32478 123.026526,30.4866484 124.070771,29.4149231 L123.699791,31.929343 C121.39146,33.6880717 118.932025,34.5674229 116.321412,34.5674229 C113.518438,34.5674229 111.347539,33.6056325 109.808652,31.682023 C108.269764,29.7584135 107.72017,27.3951572 108.159852,24.5921833 C108.599534,21.8166895 109.904821,19.4740431 112.075752,17.5641736 C114.246683,15.6543042 116.733598,14.6993837 119.536571,14.6993837 C122.119704,14.6993837 124.208163,15.4825559 125.802011,17.0489236 Z M133.551371,0.148724389 L135.406271,0.148724389 L132.562091,18.0794236 L132.644531,18.0794236 C133.359014,17.0076983 134.258975,16.1764366 135.344441,15.5856137 C136.429906,14.9947908 137.590924,14.6993837 138.827531,14.6993837 C141.135862,14.6993837 142.647247,15.365767 143.36173,16.6985537 C144.076214,18.0313403 144.227352,20.0167503 143.81515,22.6548434 L142.00147,34.1552229 L140.146571,34.1552229 L141.96025,22.6548434 C142.097651,21.8853996 142.18009,21.2258862 142.20757,20.6762835 C142.235051,20.1266808 142.207571,19.5633464 142.12513,18.9862636 C142.04269,18.4091807 141.870942,17.9488953 141.60988,17.6053936 C141.348819,17.2618919 140.950363,16.9802247 140.414501,16.7603837 C139.878638,16.5405426 139.198515,16.4306237 138.374111,16.4306237 C137.467266,16.4306237 136.642874,16.6023719 135.900911,16.9458736 C135.158947,17.2893753 134.547523,17.722181 134.066621,18.2443036 C133.585718,18.7664262 133.166653,19.4121997 132.809411,20.1816435 C132.452169,20.9510873 132.177372,21.6930399 131.985011,22.4075234 C131.79265,23.1220069 131.627772,23.9051791 131.490371,24.7570633 L130.006451,34.1552229 L128.151551,34.1552229 L133.551371,0.148724389 Z" id="FlipStitch"></path>
                </g>
            </g>
        </g>
    </g>
</svg>